<?xml version="1.0" encoding="UTF-8"?>
<!DOCTYPE svg PUBLIC "-//W3C//DTD SVG 1.1//EN" "http://www.w3.org/Graphics/SVG/1.1/DTD/svg11.dtd">
<!-- Creator: CorelDRAW -->
<svg xmlns="http://www.w3.org/2000/svg" xml:space="preserve" width="7.11111in" height="7.11111in" version="1.1" style="shape-rendering:geometricPrecision; text-rendering:geometricPrecision; image-rendering:optimizeQuality; fill-rule:evenodd; clip-rule:evenodd"
viewBox="0 0 7111 7111"
 xmlns:xlink="http://www.w3.org/1999/xlink">
 <defs>
  <style type="text/css">
   <![CDATA[
    .fil0 {fill:url(#id0)}
   ]]>
  </style>
  <linearGradient id="id0" gradientUnits="userSpaceOnUse" x1="3554.83" y1="1160.44" x2="3554.83" y2="5950.67">
   <stop offset="0" style="stop-opacity:1; stop-color:#6666CC"/>
   <stop offset="0.509804" style="stop-opacity:1; stop-color:fuchsia"/>
   <stop offset="1" style="stop-opacity:1; stop-color:#FF6600"/>
  </linearGradient>
 </defs>
 <g id="Layer_x0020_1">
  <metadata id="CorelCorpID_0Corel-Layer"/>
  <path class="fil0" d="M6839 4093l-520 -2459 -575 -240c-62,-25 -91,-97 -65,-159 26,-62 97,-91 159,-65l633 264c37,15 64,48 73,87l564 2669c2,9 3,19 2,28l0 471c0,67 -54,122 -121,122l-341 0c-163,666 -759,1140 -1456,1140 -672,0 -1262,-449 -1443,-1094l-387 0c-181,645 -771,1094 -1443,1094 -696,0 -1293,-474 -1456,-1140l-341 0c-67,0 -121,-55 -121,-122 0,-74 -5,-465 3,-502l564 -2666c8,-39 35,-72 72,-87l633 -264c62,-26 133,3 159,65 26,62 -3,134 -65,159l-575 240 -519 2459 190 0c163,-666 760,-1140 1456,-1140 672,0 1262,449 1443,1094l387 0c181,-645 771,-1094 1443,-1094 697,0 1293,474 1456,1140l191 0zm-4920 1455c-605,0 -1096,-492 -1096,-1096 0,-605 491,-1096 1096,-1096 604,0 1096,491 1096,1096 0,604 -492,1096 -1096,1096zm0 -1949c-471,0 -853,383 -853,853 0,470 383,853 853,853 470,0 853,-383 853,-853 0,-470 -383,-853 -853,-853zm1348 1015l577 0c58,0 108,40 120,97 120,577 637,996 1228,996 612,0 1133,-437 1237,-1039 10,-58 61,-101 120,-101l318 0 0 -230 -318 0c-59,0 -110,-43 -120,-101 -104,-603 -625,-1040 -1237,-1040 -591,0 -1107,420 -1228,997 -12,56 -62,97 -120,97l-577 0c-58,0 -108,-41 -119,-97 -121,-577 -638,-997 -1229,-997 -612,0 -1133,437 -1237,1040 -10,58 -61,101 -120,101l-318 0 0 230 318 0c59,0 110,43 120,101 104,602 625,1039 1237,1039 591,0 1108,-419 1229,-996 11,-57 61,-97 119,-97zm1925 934c-604,0 -1096,-492 -1096,-1096 0,-605 492,-1096 1096,-1096 605,0 1097,491 1097,1096 0,604 -492,1096 -1097,1096zm0 -1949c-470,0 -853,383 -853,853 0,470 383,853 853,853 471,0 853,-383 853,-853 0,-470 -382,-853 -853,-853z"/>
 </g>
</svg>
